<?xml version="1.0" encoding="iso-8859-1"?>
<!-- Generator: Adobe Illustrator 19.0.0, SVG Export Plug-In . SVG Version: 6.00 Build 0)  -->
<svg version="1.1" id="Layer_1" xmlns="http://www.w3.org/2000/svg" xmlns:xlink="http://www.w3.org/1999/xlink" x="0px" y="0px"
	 viewBox="0 0 512 512" width="30" height="30" style="enable-background:new 0 0 512 512;" xml:space="preserve">
<g>
	<path style="fill:#FFAD61;" d="M366.894,14.128l130.983,130.983c6.462,6.462,4.703,17.355-3.465,21.454l-89.15,44.741
		L300.699,106.744l44.74-89.15C349.54,9.425,360.432,7.666,366.894,14.128z"/>
	
		<rect x="222.037" y="135.411" transform="matrix(0.7071 0.7071 -0.7071 0.7071 239.4386 -146.0162)" style="fill:#FFAD61;" width="147.878" height="161.219"/>
	<path style="fill:#FFAD61;" d="M261.066,405.17L106.834,250.939c-2.444-2.444-1.373-6.613,1.946-7.577l77.921-22.622
		l104.563,104.563l-22.622,77.921C267.679,406.543,263.51,407.614,261.066,405.17z"/>
</g>
<polygon style="fill:#FFE6B8;" points="201.243,345.345 166.65,310.752 10.199,501.796 10.199,501.796 "/>
<g>
	<path style="fill:#4D3D36;" d="M505.09,137.899L374.107,6.915c-5.343-5.344-12.991-7.816-20.452-6.61s-13.94,5.957-17.331,12.713
		l-44.001,87.676L181.341,211.676l-75.406,21.892c-5.057,1.469-8.858,5.391-10.168,10.492c-1.31,5.1,0.132,10.368,3.854,14.091
		l53.285,53.285L2.309,495.334c-3.322,4.056-3.028,9.968,0.678,13.674c1.982,1.981,4.593,2.987,7.214,2.987
		c2.283,0,4.572-0.763,6.46-2.309l183.897-150.599l53.295,53.294c2.819,2.819,6.521,4.329,10.367,4.329
		c1.234,0,2.485-0.155,3.723-0.473c5.102-1.31,9.024-5.111,10.494-10.171l21.891-75.402l110.982-110.984l87.676-44.001
		c6.756-3.39,11.508-9.87,12.713-17.331C512.906,150.888,510.434,143.244,505.09,137.899z M83.006,428.99l84.397-103.058
		l18.661,18.66L83.006,428.99z M120.808,250.491l62.945-18.274l96.034,96.034l-18.274,62.944L120.808,250.491z M291.265,310.88
		l-90.139-90.139l99.574-99.573l90.138,90.138L291.265,310.88z M491.563,155.099c-0.098,0.604-0.451,1.712-1.725,2.352
		l-82.569,41.438l-94.151-94.151l41.438-82.569c0.639-1.274,1.748-1.628,2.352-1.725c0.607-0.097,1.768-0.109,2.775,0.898
		l130.983,130.983C491.674,153.331,491.661,154.495,491.563,155.099z"/>
	<path style="fill:#4D3D36;" d="M318.388,263.566c2.611,0,5.22-0.996,7.212-2.987l42.455-42.455c3.983-3.983,3.983-10.441,0-14.425
		c-3.984-3.982-10.44-3.982-14.425,0l-42.455,42.455c-3.983,3.983-3.983,10.441,0,14.425
		C313.168,262.571,315.778,263.566,318.388,263.566z"/>
	<path style="fill:#4D3D36;" d="M289.948,267.382l-3.931,3.931c-3.983,3.983-3.983,10.441,0,14.425
		c1.992,1.991,4.602,2.987,7.212,2.987s5.22-0.996,7.212-2.987l3.931-3.931c3.983-3.983,3.983-10.441,0-14.425
		C300.389,263.4,293.933,263.4,289.948,267.382z"/>
</g>
<g>
</g>
<g>
</g>
<g>
</g>
<g>
</g>
<g>
</g>
<g>
</g>
<g>
</g>
<g>
</g>
<g>
</g>
<g>
</g>
<g>
</g>
<g>
</g>
<g>
</g>
<g>
</g>
<g>
</g>
</svg>
